<?xml version="1.0" encoding="UTF-8"?>
<svg xmlns="http://www.w3.org/2000/svg" width="322" height="157" viewBox="0 0 322 157" fill="none">
  <path d="M0 155.18V154.44H0.3C2.09 154.44 3.52 153.89 4.62 152.8C5.71 151.71 6.26 150.27 6.26 148.48V106.06C6.26 104.27 5.71 102.84 4.62 101.74C3.53 100.65 2.09 100.1 0.3 100.1H0V99.36H23.81V100.1H23.66C21.87 100.1 20.43 100.65 19.34 101.74C18.25 102.83 17.7 104.27 17.7 106.06V123.32H42.26V106.06C42.26 104.27 41.71 102.84 40.62 101.74C39.53 100.65 38.09 100.1 36.3 100.1H36.08V99.36H59.89V100.1H59.67C57.88 100.1 56.44 100.65 55.35 101.74C54.26 102.83 53.71 104.27 53.71 106.06V148.48C53.71 150.27 54.26 151.71 55.35 152.8C56.44 153.89 57.88 154.44 59.67 154.44H59.89V155.18H36.08V154.44H36.3C38.09 154.44 39.52 153.89 40.62 152.8C41.71 151.71 42.26 150.27 42.26 148.48V124.37H17.7V148.48C17.7 150.27 18.25 151.71 19.34 152.8C20.43 153.89 21.87 154.44 23.66 154.44H23.81V155.18H0Z" fill="#E8E0D7"></path>
  <path d="M68.74 155.18V154.44C71.52 153.4 73.64 147.81 74.09 146.61L93.74 98.54L96.58 98.25L115.93 146.32C118.11 151.73 120.54 154.43 123.22 154.43H123.44V155.17H99.63V154.43H99.93C102.16 154.43 103.66 153.75 104.43 152.38C105.2 151.02 105.09 149.12 104.1 146.69L99.64 135.6H81.71L77.54 145.94C76.65 148.07 76.76 150 77.87 151.71C78.99 153.42 80.78 154.33 83.27 154.43V155.17H68.76L68.74 155.18ZM82.06 134.65H99.25L90.77 113.22L82.06 134.65Z" fill="#E8E0D7"></path>
  <path d="M139.83 156.3L120.63 108.23C118.5 102.82 116.12 100.12 113.49 100.12H113.27V99.38H136.86V100.12H136.56C134.33 100.12 132.84 100.8 132.1 102.17C131.36 103.54 131.45 105.41 132.4 107.79L145.57 141.35L153.38 122L148.47 108.23C147.53 105.55 146.4 103.53 145.08 102.16C143.77 100.8 142.12 100.11 140.13 100.11H139.98V99.37H163.87V100.11H163.57C161.44 100.11 160.05 100.78 159.4 102.12C158.75 103.46 158.83 105.35 159.62 107.78L171.01 141.34L182 107.85C182.84 105.62 182.76 103.79 181.74 102.38C180.72 100.97 180.68 100.21 178.15 100.11V99.37H191.77V100.11C190.43 100.11 189.18 100.76 188.01 102.04C186.84 103.33 186.76 104.97 186.01 106.95L171.8 156.29H169.04L155.27 126.65L143.1 156.29H139.83V156.3Z" fill="#E8E0D7"></path>
  <path d="M198.83 155.18L198.9 154.44H198.97C200.76 154.44 202.19 153.97 203.29 153.03C204.38 152.09 204.93 150.72 204.93 148.94V106.08C204.93 104.29 204.38 102.86 203.29 101.76C202.2 100.67 200.76 100.12 198.97 100.12L198.9 99.38H238.79L241.02 114.34H240.28C238.79 105.01 232.91 100.35 222.64 100.35H216.39V121.86H223.09C225.57 121.86 227.56 121.1 229.04 119.59C230.53 118.08 231.27 116.08 231.27 113.6H232.01V131.91H231.27C231.22 129.23 230.38 127.05 228.74 125.36C227.1 123.67 224.95 122.83 222.27 122.83H216.39V148.95C216.39 152.47 218.13 154.23 221.6 154.23H224.73C229.54 154.23 233.36 152.99 236.19 150.51C239.02 148.03 240.83 144.14 241.62 138.83H242.36L240.13 155.2H198.83V155.18Z" fill="#E8E0D7"></path>
  <path d="M249.8 155.18V154.44H249.87C251.66 154.44 253.09 153.97 254.19 153.03C255.28 152.09 255.83 150.72 255.83 148.94V106.08C255.83 104.29 255.28 102.86 254.19 101.76C253.1 100.67 251.66 100.12 249.87 100.12H249.8V99.38H273.54V100.12H273.24C271.45 100.12 270.01 100.67 268.92 101.76C267.83 102.85 267.28 104.29 267.28 106.08V149.24C267.28 150.83 267.66 152.06 268.43 152.92C269.2 153.79 270.55 154.22 272.49 154.22H274.05C278.46 154.22 282.19 152.86 285.21 150.13C288.24 147.4 290.15 143.56 290.94 138.6H291.68L289.45 155.19H249.79L249.8 155.18Z" fill="#E8E0D7"></path>
  <path d="M298.28 155.18V154.44H298.35C300.14 154.44 301.57 153.89 302.67 152.8C303.76 151.71 304.31 150.27 304.31 148.48V106.06C304.31 104.27 303.76 102.84 302.67 101.74C301.58 100.65 300.14 100.1 298.35 100.1H298.28V99.36H321.87V100.1H321.8C320.01 100.1 318.57 100.65 317.48 101.74C316.39 102.83 315.84 104.27 315.84 106.06V148.48C315.84 150.27 316.39 151.71 317.48 152.8C318.57 153.89 320.01 154.44 321.8 154.44H321.87V155.18H298.28Z" fill="#E8E0D7"></path>
  <path d="M189.08 47.4C187.27 44.62 185.42 41.86 183.64 39.06C182.2 36.8 180.95 34.41 179.1 32.42C176.16 29.26 172.75 27.04 168.24 27.1C167.59 27.1 167.35 26.87 167.22 26.22C165.92 20.03 162.65 15.48 156.39 13.5C155.89 13.34 155.69 13.12 155.89 12.59C156.05 12.15 156.17 11.68 156.25 11.22C156.57 9.29 156.83 7.36 156.02 5.47C155.77 4.89 155.41 4.47 154.75 4.28C153.31 3.86 152.58 2.78 152.27 1.38C152.19 1 152.14 0.61 152.03 0C151.5 1.8 150.63 3.12 149.26 4.06C147.93 4.96 147.47 6.28 147.35 7.78C147.22 9.39 147.53 10.93 148.12 12.42C148.38 13.07 148.27 13.35 147.57 13.61C141.55 15.86 137.82 20.06 136.77 26.47C136.67 27.05 136.35 27.12 135.89 27.11C134.64 27.06 133.42 27.27 132.23 27.64C127.69 29.05 124.59 32.18 122.16 36.07C121.09 37.79 120.21 39.62 119.2 41.38C117.81 43.79 116.29 46.12 114.31 48.13C114.63 48.37 114.93 48.28 115.21 48.28C117.74 48.28 120.27 48.28 122.8 48.28C124.18 48.28 124.26 48.35 124.26 49.77C124.26 57.61 124.26 65.46 124.1 73.3C124.1 73.38 124.1 73.46 124.1 73.54C124.16 74.17 123.84 74.37 123.25 74.36C122.22 74.33 121.19 74.39 120.17 74.34C119.4 74.3 119.18 74.61 119.18 75.35C119.18 76.24 119.04 81.78 119.04 82.77C119.04 83.31 119.27 83.54 119.8 83.51C120.09 83.49 120.38 83.51 120.67 83.51C141.44 83.51 162.22 83.51 182.99 83.51C185.03 83.51 184.81 83.75 184.82 81.71C184.82 80.57 184.8 76.15 184.82 75.15C184.83 74.58 184.61 74.34 184.03 74.35C182.95 74.37 181.87 74.33 180.79 74.36C180.15 74.38 179.9 74.15 179.9 73.49C179.91 65.35 179.9 57.22 179.91 49.08C179.91 48.15 180.19 47.93 181.11 47.97C183.61 48.08 186.11 48.17 188.61 48.27C188.87 48.27 189.2 48.38 189.36 48.15C189.56 47.85 189.23 47.62 189.08 47.4ZM163.27 47.95V74.27H160.31V45.29C160.74 45.67 161.19 46.06 161.67 46.45C162.24 46.91 162.77 47.42 163.27 47.95ZM158.18 43.23V74.27H155.37V39.89C156.12 40.93 157.05 42.05 158.18 43.23ZM152.2 33.89C152.2 33.89 152.44 34.86 153.23 36.43V74.27H150.49V37.37C151.03 36.4 151.58 35.28 152.2 33.9V33.89ZM148.36 40.52V74.27H145.43V43.56C146.62 42.44 147.56 41.5 148.36 40.52ZM143.29 45.53V74.27H140.62V48.03C140.9 47.75 141.18 47.46 141.49 47.18C142.14 46.58 142.73 46.04 143.29 45.53ZM135.12 58.91C135.12 58.91 135.07 55.1 138.49 50.49V74.27H135.27L135.13 58.91H135.12ZM168.59 74.27H165.41V50.62C166.95 52.81 168.56 55.77 168.65 58.68C168.82 64.31 168.59 74.27 168.59 74.27Z" fill="#E8E0D7"></path>
</svg>
