<svg width="153" height="43" viewBox="0 0 153 43" fill="none" xmlns="http://www.w3.org/2000/svg">
<path d="M0 4.46532C0 2.48028 1.60919 0.871094 3.59423 0.871094H25.0608C32.2069 0.871094 38 6.66418 38 13.8103V37.5322C38 39.5173 36.3908 41.1264 34.4058 41.1264H12.9392C5.79308 41.1264 0 35.3334 0 28.1872V4.46532Z" fill="#255FB8"/>
<path fill-rule="evenodd" clip-rule="evenodd" d="M13.2217 7.70013C13.4552 7.73652 13.6845 7.77649 13.9181 7.8093C14.6252 7.92928 15.3129 8.14112 15.9632 8.43926C16.9504 8.89022 17.8859 9.44336 18.7539 10.0893C18.7643 10.0919 18.7734 10.098 18.7796 10.1067C18.7857 10.1154 18.7884 10.1259 18.7872 10.1364C18.6022 10.0565 18.4166 9.96881 18.2352 9.89783C17.6523 9.64714 17.0184 9.5324 16.383 9.56256C15.5999 9.62001 14.8709 9.97703 14.3525 10.557C13.7352 11.2642 13.2905 12.1008 13.0524 13.0029C12.798 13.8281 12.6279 14.6762 12.5446 15.5346C12.4547 16.3597 12.4249 17.19 12.4554 18.0193C12.5013 20.5011 13.0555 22.9484 14.0849 25.2149C14.5302 26.2151 15.1753 27.117 15.982 27.8672C16.5954 28.4415 17.3695 28.8222 18.2048 28.9601C18.9781 29.0665 19.7662 28.9672 20.4871 28.6725C21.3773 28.3123 22.1981 27.8047 22.9138 27.1716C24.193 26.1041 25.2903 24.8424 26.1643 23.4342C26.8233 22.3694 27.2662 21.1891 27.4687 19.9587C27.7601 18.3559 27.4676 16.7034 26.6424 15.2919C26.3875 14.8674 26.0604 14.489 25.6754 14.1733C25.4269 13.9491 25.1344 13.7772 24.8159 13.6681C24.4974 13.5591 24.1596 13.5152 23.8232 13.5392C23.8214 13.5259 23.8214 13.5125 23.8232 13.4992C24.1526 13.4485 24.479 13.3715 24.8084 13.3501C25.8653 13.2672 26.9184 13.5497 27.7861 14.1487C28.6538 14.7476 29.2818 15.6256 29.5617 16.6311C29.7986 17.4241 29.8809 18.2539 29.8043 19.077C29.621 20.7702 29.0618 22.4032 28.1663 23.8607C27.3227 25.3064 26.3215 26.6574 25.1803 27.8898C22.9733 30.2575 20.5182 32.3894 17.856 34.2503L17.782 34.2974L17.5005 33.9329C15.1564 30.9569 13.1094 27.7657 11.3877 24.4036C10.3868 22.4585 9.58157 20.422 8.98347 18.3229C8.70373 17.3501 8.5009 16.3575 8.3768 15.3539C8.18125 13.9793 8.24666 12.581 8.56972 11.2299C8.77615 10.4033 9.18145 9.63755 9.75151 8.99703C10.3624 8.3258 11.1965 7.89054 12.1042 7.76933L12.4748 7.70967L13.2217 7.70013Z" fill="white"/>
<path fill-rule="evenodd" clip-rule="evenodd" d="M13.3743 13.7269C13.4955 13.3899 13.5962 13.0683 13.7187 12.7576C13.9906 12.0001 14.4286 11.3146 14.9999 10.7523C15.3682 10.4011 15.8176 10.1486 16.3073 10.0181C16.7969 9.88751 17.3112 9.88296 17.803 10.0048C18.6657 10.2102 19.4669 10.6221 20.1392 11.2057C21.1944 12.0723 22.1766 13.0258 23.0757 14.0565C24.246 15.3585 25.3453 16.7242 26.39 18.1346C26.4111 18.1615 26.424 18.1941 26.427 18.2283C26.2675 18.0598 26.116 17.8877 25.9565 17.7235C24.5808 16.1947 22.9513 14.9205 21.1415 13.9585C20.1695 13.4481 19.1235 13.0965 18.0425 12.9169C16.4683 12.6187 14.8404 12.9014 13.4549 13.7134L13.3743 13.7269Z" fill="white"/>
<path d="M53.826 20.5C53.6793 20.5 53.566 20.46 53.486 20.38C53.406 20.2867 53.366 20.1733 53.366 20.04V6.98C53.366 6.83333 53.406 6.72 53.486 6.64C53.566 6.54667 53.6793 6.5 53.826 6.5H54.846C54.9926 6.5 55.106 6.54667 55.186 6.64C55.2793 6.72 55.326 6.83333 55.326 6.98V12.5H62.206V6.98C62.206 6.83333 62.246 6.72 62.326 6.64C62.4193 6.54667 62.5326 6.5 62.666 6.5H63.686C63.8326 6.5 63.946 6.54667 64.026 6.64C64.1193 6.72 64.166 6.83333 64.166 6.98V20.04C64.166 20.1733 64.1193 20.2867 64.026 20.38C63.946 20.46 63.8326 20.5 63.686 20.5H62.666C62.5326 20.5 62.4193 20.46 62.326 20.38C62.246 20.2867 62.206 20.1733 62.206 20.04V14.3H55.326V20.04C55.326 20.1733 55.2793 20.2867 55.186 20.38C55.106 20.46 54.9926 20.5 54.846 20.5H53.826ZM71.5038 20.7C70.1305 20.7 69.0371 20.28 68.2238 19.44C67.4105 18.5867 66.9638 17.4267 66.8838 15.96C66.8705 15.7867 66.8638 15.5667 66.8638 15.3C66.8638 15.02 66.8705 14.7933 66.8838 14.62C66.9371 13.6733 67.1571 12.8467 67.5438 12.14C67.9305 11.42 68.4571 10.8667 69.1238 10.48C69.8038 10.0933 70.5971 9.9 71.5038 9.9C72.5171 9.9 73.3638 10.1133 74.0438 10.54C74.7371 10.9667 75.2638 11.5733 75.6238 12.36C75.9838 13.1467 76.1638 14.0667 76.1638 15.12V15.46C76.1638 15.6067 76.1171 15.72 76.0238 15.8C75.9438 15.88 75.8371 15.92 75.7038 15.92H68.7838C68.7838 15.9333 68.7838 15.96 68.7838 16C68.7838 16.04 68.7838 16.0733 68.7838 16.1C68.8105 16.6467 68.9305 17.16 69.1438 17.64C69.3571 18.1067 69.6638 18.4867 70.0638 18.78C70.4638 19.0733 70.9438 19.22 71.5038 19.22C71.9838 19.22 72.3838 19.1467 72.7038 19C73.0238 18.8533 73.2838 18.6933 73.4838 18.52C73.6838 18.3333 73.8171 18.1933 73.8838 18.1C74.0038 17.9267 74.0971 17.8267 74.1638 17.8C74.2305 17.76 74.3371 17.74 74.4838 17.74H75.4438C75.5771 17.74 75.6838 17.78 75.7638 17.86C75.8571 17.9267 75.8971 18.0267 75.8838 18.16C75.8705 18.36 75.7638 18.6067 75.5638 18.9C75.3638 19.18 75.0771 19.46 74.7038 19.74C74.3305 20.02 73.8771 20.2533 73.3438 20.44C72.8105 20.6133 72.1971 20.7 71.5038 20.7ZM68.7838 14.54H74.2638V14.48C74.2638 13.88 74.1505 13.3467 73.9238 12.88C73.7105 12.4133 73.3971 12.0467 72.9838 11.78C72.5705 11.5 72.0771 11.36 71.5038 11.36C70.9305 11.36 70.4371 11.5 70.0238 11.78C69.6238 12.0467 69.3171 12.4133 69.1038 12.88C68.8905 13.3467 68.7838 13.88 68.7838 14.48V14.54ZM81.4552 20.7C80.7885 20.7 80.1819 20.5667 79.6352 20.3C79.0885 20.0333 78.6485 19.6733 78.3152 19.22C77.9819 18.7667 77.8152 18.2533 77.8152 17.68C77.8152 16.76 78.1885 16.0267 78.9352 15.48C79.6819 14.9333 80.6552 14.5733 81.8552 14.4L84.8352 13.98V13.4C84.8352 12.76 84.6485 12.26 84.2752 11.9C83.9152 11.54 83.3219 11.36 82.4952 11.36C81.8952 11.36 81.4085 11.48 81.0352 11.72C80.6752 11.96 80.4219 12.2667 80.2752 12.64C80.1952 12.84 80.0552 12.94 79.8552 12.94H78.9552C78.8085 12.94 78.6952 12.9 78.6152 12.82C78.5485 12.7267 78.5152 12.62 78.5152 12.5C78.5152 12.3 78.5885 12.0533 78.7352 11.76C78.8952 11.4667 79.1352 11.18 79.4552 10.9C79.7752 10.62 80.1819 10.3867 80.6752 10.2C81.1819 10 81.7952 9.9 82.5152 9.9C83.3152 9.9 83.9885 10.0067 84.5352 10.22C85.0819 10.42 85.5085 10.6933 85.8152 11.04C86.1352 11.3867 86.3619 11.78 86.4952 12.22C86.6419 12.66 86.7152 13.1067 86.7152 13.56V20.04C86.7152 20.1733 86.6685 20.2867 86.5752 20.38C86.4952 20.46 86.3885 20.5 86.2552 20.5H85.3352C85.1885 20.5 85.0752 20.46 84.9952 20.38C84.9152 20.2867 84.8752 20.1733 84.8752 20.04V19.18C84.7019 19.42 84.4685 19.66 84.1752 19.9C83.8819 20.1267 83.5152 20.32 83.0752 20.48C82.6352 20.6267 82.0952 20.7 81.4552 20.7ZM81.8752 19.2C82.4219 19.2 82.9219 19.0867 83.3752 18.86C83.8285 18.62 84.1819 18.2533 84.4352 17.76C84.7019 17.2667 84.8352 16.6467 84.8352 15.9V15.34L82.5152 15.68C81.5685 15.8133 80.8552 16.04 80.3752 16.36C79.8952 16.6667 79.6552 17.06 79.6552 17.54C79.6552 17.9133 79.7619 18.2267 79.9752 18.48C80.2019 18.72 80.4819 18.9 80.8152 19.02C81.1619 19.14 81.5152 19.2 81.8752 19.2ZM90.0704 20.5C89.937 20.5 89.8237 20.46 89.7304 20.38C89.6504 20.2867 89.6104 20.1733 89.6104 20.04V6.76C89.6104 6.62667 89.6504 6.52 89.7304 6.44C89.8237 6.34667 89.937 6.3 90.0704 6.3H91.0104C91.157 6.3 91.2704 6.34667 91.3504 6.44C91.4304 6.52 91.4704 6.62667 91.4704 6.76V20.04C91.4704 20.1733 91.4304 20.2867 91.3504 20.38C91.2704 20.46 91.157 20.5 91.0104 20.5H90.0704ZM98.5136 20.5C97.767 20.5 97.1603 20.36 96.6936 20.08C96.227 19.7867 95.887 19.38 95.6736 18.86C95.4603 18.3267 95.3536 17.7 95.3536 16.98V11.7H93.7936C93.6603 11.7 93.547 11.66 93.4536 11.58C93.3736 11.4867 93.3336 11.3733 93.3336 11.24V10.56C93.3336 10.4267 93.3736 10.32 93.4536 10.24C93.547 10.1467 93.6603 10.1 93.7936 10.1H95.3536V6.76C95.3536 6.62667 95.3936 6.52 95.4736 6.44C95.567 6.34667 95.6803 6.3 95.8136 6.3H96.7536C96.887 6.3 96.9936 6.34667 97.0736 6.44C97.167 6.52 97.2136 6.62667 97.2136 6.76V10.1H99.6936C99.827 10.1 99.9336 10.1467 100.014 10.24C100.107 10.32 100.154 10.4267 100.154 10.56V11.24C100.154 11.3733 100.107 11.4867 100.014 11.58C99.9336 11.66 99.827 11.7 99.6936 11.7H97.2136V16.84C97.2136 17.4667 97.3203 17.96 97.5336 18.32C97.747 18.68 98.127 18.86 98.6736 18.86H99.8936C100.027 18.86 100.134 18.9067 100.214 19C100.307 19.08 100.354 19.1867 100.354 19.32V20.04C100.354 20.1733 100.307 20.2867 100.214 20.38C100.134 20.46 100.027 20.5 99.8936 20.5H98.5136ZM102.746 20.5C102.613 20.5 102.499 20.46 102.406 20.38C102.326 20.2867 102.286 20.1733 102.286 20.04V6.76C102.286 6.62667 102.326 6.52 102.406 6.44C102.499 6.34667 102.613 6.3 102.746 6.3H103.746C103.893 6.3 104.006 6.34667 104.086 6.44C104.166 6.52 104.206 6.62667 104.206 6.76V11.42C104.566 10.9667 105.006 10.6 105.526 10.32C106.046 10.04 106.706 9.9 107.506 9.9C108.373 9.9 109.106 10.0933 109.706 10.48C110.319 10.8533 110.779 11.38 111.086 12.06C111.406 12.7267 111.566 13.5067 111.566 14.4V20.04C111.566 20.1733 111.526 20.2867 111.446 20.38C111.366 20.46 111.253 20.5 111.106 20.5H110.106C109.973 20.5 109.859 20.46 109.766 20.38C109.686 20.2867 109.646 20.1733 109.646 20.04V14.5C109.646 13.5667 109.419 12.84 108.966 12.32C108.513 11.7867 107.846 11.52 106.966 11.52C106.139 11.52 105.473 11.7867 104.966 12.32C104.459 12.84 104.206 13.5667 104.206 14.5V20.04C104.206 20.1733 104.166 20.2867 104.086 20.38C104.006 20.46 103.893 20.5 103.746 20.5H102.746ZM117.077 20.5C116.904 20.5 116.77 20.46 116.677 20.38C116.584 20.2867 116.504 20.16 116.437 20L113.597 10.72C113.57 10.6533 113.557 10.5867 113.557 10.52C113.557 10.4 113.597 10.3 113.677 10.22C113.77 10.14 113.87 10.1 113.977 10.1H114.857C115.004 10.1 115.117 10.14 115.197 10.22C115.277 10.3 115.33 10.3733 115.357 10.44L117.577 17.98L119.957 10.52C119.984 10.4267 120.037 10.3333 120.117 10.24C120.21 10.1467 120.344 10.1 120.517 10.1H121.197C121.37 10.1 121.504 10.1467 121.597 10.24C121.69 10.3333 121.744 10.4267 121.757 10.52L124.137 17.98L126.357 10.44C126.37 10.3733 126.417 10.3 126.497 10.22C126.577 10.14 126.69 10.1 126.837 10.1H127.717C127.837 10.1 127.937 10.14 128.017 10.22C128.097 10.3 128.137 10.4 128.137 10.52C128.137 10.5867 128.124 10.6533 128.097 10.72L125.257 20C125.217 20.16 125.144 20.2867 125.037 20.38C124.944 20.46 124.804 20.5 124.617 20.5H123.837C123.664 20.5 123.517 20.46 123.397 20.38C123.29 20.2867 123.217 20.16 123.177 20L120.857 12.84L118.537 20C118.484 20.16 118.404 20.2867 118.297 20.38C118.19 20.46 118.044 20.5 117.857 20.5H117.077ZM130.812 20.5C130.679 20.5 130.565 20.46 130.472 20.38C130.392 20.2867 130.352 20.1733 130.352 20.04V10.56C130.352 10.4267 130.392 10.32 130.472 10.24C130.565 10.1467 130.679 10.1 130.812 10.1H131.772C131.905 10.1 132.012 10.1467 132.092 10.24C132.172 10.32 132.212 10.4267 132.212 10.56V20.04C132.212 20.1733 132.172 20.2867 132.092 20.38C132.012 20.46 131.905 20.5 131.772 20.5H130.812ZM130.652 8.16C130.519 8.16 130.405 8.12 130.312 8.04C130.232 7.94667 130.192 7.83333 130.192 7.7V6.62C130.192 6.48667 130.232 6.38 130.312 6.3C130.405 6.20667 130.519 6.16 130.652 6.16H131.912C132.045 6.16 132.152 6.20667 132.232 6.3C132.325 6.38 132.372 6.48667 132.372 6.62V7.7C132.372 7.83333 132.325 7.94667 132.232 8.04C132.152 8.12 132.045 8.16 131.912 8.16H130.652ZM135.851 20.5C135.718 20.5 135.604 20.46 135.511 20.38C135.431 20.2867 135.391 20.1733 135.391 20.04V10.58C135.391 10.4467 135.431 10.3333 135.511 10.24C135.604 10.1467 135.718 10.1 135.851 10.1H136.771C136.904 10.1 137.018 10.1467 137.111 10.24C137.204 10.3333 137.251 10.4467 137.251 10.58V11.46C137.518 11.0067 137.884 10.6667 138.351 10.44C138.818 10.2133 139.378 10.1 140.031 10.1H140.831C140.964 10.1 141.071 10.1467 141.151 10.24C141.231 10.32 141.271 10.4267 141.271 10.56V11.38C141.271 11.5133 141.231 11.62 141.151 11.7C141.071 11.78 140.964 11.82 140.831 11.82H139.631C138.911 11.82 138.344 12.0333 137.931 12.46C137.518 12.8733 137.311 13.44 137.311 14.16V20.04C137.311 20.1733 137.264 20.2867 137.171 20.38C137.078 20.46 136.964 20.5 136.831 20.5H135.851ZM146.933 20.7C145.56 20.7 144.467 20.28 143.653 19.44C142.84 18.5867 142.393 17.4267 142.313 15.96C142.3 15.7867 142.293 15.5667 142.293 15.3C142.293 15.02 142.3 14.7933 142.313 14.62C142.367 13.6733 142.587 12.8467 142.973 12.14C143.36 11.42 143.887 10.8667 144.553 10.48C145.233 10.0933 146.027 9.9 146.933 9.9C147.947 9.9 148.793 10.1133 149.473 10.54C150.167 10.9667 150.693 11.5733 151.053 12.36C151.413 13.1467 151.593 14.0667 151.593 15.12V15.46C151.593 15.6067 151.547 15.72 151.453 15.8C151.373 15.88 151.267 15.92 151.133 15.92H144.213C144.213 15.9333 144.213 15.96 144.213 16C144.213 16.04 144.213 16.0733 144.213 16.1C144.24 16.6467 144.36 17.16 144.573 17.64C144.787 18.1067 145.093 18.4867 145.493 18.78C145.893 19.0733 146.373 19.22 146.933 19.22C147.413 19.22 147.813 19.1467 148.133 19C148.453 18.8533 148.713 18.6933 148.913 18.52C149.113 18.3333 149.247 18.1933 149.313 18.1C149.433 17.9267 149.527 17.8267 149.593 17.8C149.66 17.76 149.767 17.74 149.913 17.74H150.873C151.007 17.74 151.113 17.78 151.193 17.86C151.287 17.9267 151.327 18.0267 151.313 18.16C151.3 18.36 151.193 18.6067 150.993 18.9C150.793 19.18 150.507 19.46 150.133 19.74C149.76 20.02 149.307 20.2533 148.773 20.44C148.24 20.6133 147.627 20.7 146.933 20.7ZM144.213 14.54H149.693V14.48C149.693 13.88 149.58 13.3467 149.353 12.88C149.14 12.4133 148.827 12.0467 148.413 11.78C148 11.5 147.507 11.36 146.933 11.36C146.36 11.36 145.867 11.5 145.453 11.78C145.053 12.0467 144.747 12.4133 144.533 12.88C144.32 13.3467 144.213 13.88 144.213 14.48V14.54ZM53.826 38.5C53.6793 38.5 53.566 38.46 53.486 38.38C53.406 38.2867 53.366 38.1733 53.366 38.04V24.98C53.366 24.8333 53.406 24.72 53.486 24.64C53.566 24.5467 53.6793 24.5 53.826 24.5H58.906C59.8926 24.5 60.746 24.66 61.466 24.98C62.1993 25.3 62.766 25.78 63.166 26.42C63.566 27.0467 63.766 27.8333 63.766 28.78C63.766 29.7267 63.566 30.5133 63.166 31.14C62.766 31.7667 62.1993 32.24 61.466 32.56C60.746 32.88 59.8926 33.04 58.906 33.04H55.366V38.04C55.366 38.1733 55.3193 38.2867 55.226 38.38C55.146 38.46 55.0326 38.5 54.886 38.5H53.826ZM55.346 31.36H58.806C59.7926 31.36 60.5326 31.14 61.026 30.7C61.5193 30.26 61.766 29.62 61.766 28.78C61.766 27.9533 61.526 27.3133 61.046 26.86C60.566 26.4067 59.8193 26.18 58.806 26.18H55.346V31.36ZM66.418 38.5C66.2847 38.5 66.1713 38.46 66.078 38.38C65.998 38.2867 65.958 38.1733 65.958 38.04V24.76C65.958 24.6267 65.998 24.52 66.078 24.44C66.1713 24.3467 66.2847 24.3 66.418 24.3H67.418C67.5647 24.3 67.678 24.3467 67.758 24.44C67.838 24.52 67.878 24.6267 67.878 24.76V29.42C68.238 28.9667 68.678 28.6 69.198 28.32C69.718 28.04 70.378 27.9 71.178 27.9C72.0447 27.9 72.778 28.0933 73.378 28.48C73.9913 28.8533 74.4513 29.38 74.758 30.06C75.078 30.7267 75.238 31.5067 75.238 32.4V38.04C75.238 38.1733 75.198 38.2867 75.118 38.38C75.038 38.46 74.9247 38.5 74.778 38.5H73.778C73.6447 38.5 73.5313 38.46 73.438 38.38C73.358 38.2867 73.318 38.1733 73.318 38.04V32.5C73.318 31.5667 73.0913 30.84 72.638 30.32C72.1847 29.7867 71.518 29.52 70.638 29.52C69.8113 29.52 69.1447 29.7867 68.638 30.32C68.1313 30.84 67.878 31.5667 67.878 32.5V38.04C67.878 38.1733 67.838 38.2867 67.758 38.38C67.678 38.46 67.5647 38.5 67.418 38.5H66.418ZM81.0255 38.7C80.3588 38.7 79.7522 38.5667 79.2055 38.3C78.6588 38.0333 78.2188 37.6733 77.8855 37.22C77.5522 36.7667 77.3855 36.2533 77.3855 35.68C77.3855 34.76 77.7588 34.0267 78.5055 33.48C79.2522 32.9333 80.2255 32.5733 81.4255 32.4L84.4055 31.98V31.4C84.4055 30.76 84.2188 30.26 83.8455 29.9C83.4855 29.54 82.8922 29.36 82.0655 29.36C81.4655 29.36 80.9788 29.48 80.6055 29.72C80.2455 29.96 79.9922 30.2667 79.8455 30.64C79.7655 30.84 79.6255 30.94 79.4255 30.94H78.5255C78.3788 30.94 78.2655 30.9 78.1855 30.82C78.1188 30.7267 78.0855 30.62 78.0855 30.5C78.0855 30.3 78.1588 30.0533 78.3055 29.76C78.4655 29.4667 78.7055 29.18 79.0255 28.9C79.3455 28.62 79.7522 28.3867 80.2455 28.2C80.7522 28 81.3655 27.9 82.0855 27.9C82.8855 27.9 83.5588 28.0067 84.1055 28.22C84.6522 28.42 85.0788 28.6933 85.3855 29.04C85.7055 29.3867 85.9322 29.78 86.0655 30.22C86.2122 30.66 86.2855 31.1067 86.2855 31.56V38.04C86.2855 38.1733 86.2388 38.2867 86.1455 38.38C86.0655 38.46 85.9588 38.5 85.8255 38.5H84.9055C84.7588 38.5 84.6455 38.46 84.5655 38.38C84.4855 38.2867 84.4455 38.1733 84.4455 38.04V37.18C84.2722 37.42 84.0388 37.66 83.7455 37.9C83.4522 38.1267 83.0855 38.32 82.6455 38.48C82.2055 38.6267 81.6655 38.7 81.0255 38.7ZM81.4455 37.2C81.9922 37.2 82.4922 37.0867 82.9455 36.86C83.3988 36.62 83.7522 36.2533 84.0055 35.76C84.2722 35.2667 84.4055 34.6467 84.4055 33.9V33.34L82.0855 33.68C81.1388 33.8133 80.4255 34.04 79.9455 34.36C79.4655 34.6667 79.2255 35.06 79.2255 35.54C79.2255 35.9133 79.3322 36.2267 79.5455 36.48C79.7722 36.72 80.0522 36.9 80.3855 37.02C80.7322 37.14 81.0855 37.2 81.4455 37.2ZM89.6207 38.5C89.4873 38.5 89.374 38.46 89.2807 38.38C89.2007 38.2867 89.1607 38.1733 89.1607 38.04V28.58C89.1607 28.4467 89.2007 28.3333 89.2807 28.24C89.374 28.1467 89.4873 28.1 89.6207 28.1H90.5407C90.674 28.1 90.7873 28.1467 90.8807 28.24C90.974 28.3333 91.0207 28.4467 91.0207 28.58V29.46C91.2873 29.0067 91.654 28.6667 92.1207 28.44C92.5873 28.2133 93.1473 28.1 93.8007 28.1H94.6007C94.734 28.1 94.8407 28.1467 94.9207 28.24C95.0007 28.32 95.0407 28.4267 95.0407 28.56V29.38C95.0407 29.5133 95.0007 29.62 94.9207 29.7C94.8407 29.78 94.734 29.82 94.6007 29.82H93.4007C92.6807 29.82 92.114 30.0333 91.7007 30.46C91.2873 30.8733 91.0807 31.44 91.0807 32.16V38.04C91.0807 38.1733 91.034 38.2867 90.9407 38.38C90.8473 38.46 90.734 38.5 90.6007 38.5H89.6207ZM97.2183 38.5C97.085 38.5 96.9717 38.46 96.8783 38.38C96.7983 38.2867 96.7583 38.1733 96.7583 38.04V28.56C96.7583 28.4267 96.7983 28.32 96.8783 28.24C96.9717 28.1467 97.085 28.1 97.2183 28.1H98.1183C98.2517 28.1 98.3583 28.1467 98.4383 28.24C98.5317 28.32 98.5783 28.4267 98.5783 28.56V29.26C98.885 28.8467 99.2717 28.52 99.7383 28.28C100.205 28.0267 100.765 27.9 101.418 27.9C102.925 27.8867 103.992 28.5 104.618 29.74C104.925 29.18 105.372 28.7333 105.958 28.4C106.545 28.0667 107.212 27.9 107.958 27.9C108.652 27.9 109.278 28.06 109.838 28.38C110.412 28.7 110.858 29.1867 111.178 29.84C111.512 30.48 111.678 31.2867 111.678 32.26V38.04C111.678 38.1733 111.632 38.2867 111.538 38.38C111.458 38.46 111.352 38.5 111.218 38.5H110.278C110.145 38.5 110.032 38.46 109.938 38.38C109.858 38.2867 109.818 38.1733 109.818 38.04V32.44C109.818 31.6933 109.712 31.1067 109.498 30.68C109.285 30.2533 108.998 29.9533 108.638 29.78C108.278 29.6067 107.885 29.52 107.458 29.52C107.112 29.52 106.758 29.6067 106.398 29.78C106.038 29.9533 105.738 30.2533 105.498 30.68C105.272 31.1067 105.158 31.6933 105.158 32.44V38.04C105.158 38.1733 105.112 38.2867 105.018 38.38C104.938 38.46 104.832 38.5 104.698 38.5H103.758C103.625 38.5 103.512 38.46 103.418 38.38C103.338 38.2867 103.298 38.1733 103.298 38.04V32.44C103.298 31.6933 103.185 31.1067 102.958 30.68C102.732 30.2533 102.438 29.9533 102.078 29.78C101.718 29.6067 101.338 29.52 100.938 29.52C100.592 29.52 100.238 29.6067 99.8783 29.78C99.5183 29.9533 99.2183 30.2533 98.9783 30.68C98.7517 31.1067 98.6383 31.6867 98.6383 32.42V38.04C98.6383 38.1733 98.5917 38.2867 98.4983 38.38C98.4183 38.46 98.3117 38.5 98.1783 38.5H97.2183ZM117.432 38.7C116.765 38.7 116.158 38.5667 115.612 38.3C115.065 38.0333 114.625 37.6733 114.292 37.22C113.958 36.7667 113.792 36.2533 113.792 35.68C113.792 34.76 114.165 34.0267 114.912 33.48C115.658 32.9333 116.632 32.5733 117.832 32.4L120.812 31.98V31.4C120.812 30.76 120.625 30.26 120.252 29.9C119.892 29.54 119.298 29.36 118.472 29.36C117.872 29.36 117.385 29.48 117.012 29.72C116.652 29.96 116.398 30.2667 116.252 30.64C116.172 30.84 116.032 30.94 115.832 30.94H114.932C114.785 30.94 114.672 30.9 114.592 30.82C114.525 30.7267 114.492 30.62 114.492 30.5C114.492 30.3 114.565 30.0533 114.712 29.76C114.872 29.4667 115.112 29.18 115.432 28.9C115.752 28.62 116.158 28.3867 116.652 28.2C117.158 28 117.772 27.9 118.492 27.9C119.292 27.9 119.965 28.0067 120.512 28.22C121.058 28.42 121.485 28.6933 121.792 29.04C122.112 29.3867 122.338 29.78 122.472 30.22C122.618 30.66 122.692 31.1067 122.692 31.56V38.04C122.692 38.1733 122.645 38.2867 122.552 38.38C122.472 38.46 122.365 38.5 122.232 38.5H121.312C121.165 38.5 121.052 38.46 120.972 38.38C120.892 38.2867 120.852 38.1733 120.852 38.04V37.18C120.678 37.42 120.445 37.66 120.152 37.9C119.858 38.1267 119.492 38.32 119.052 38.48C118.612 38.6267 118.072 38.7 117.432 38.7ZM117.852 37.2C118.398 37.2 118.898 37.0867 119.352 36.86C119.805 36.62 120.158 36.2533 120.412 35.76C120.678 35.2667 120.812 34.6467 120.812 33.9V33.34L118.492 33.68C117.545 33.8133 116.832 34.04 116.352 34.36C115.872 34.6667 115.632 35.06 115.632 35.54C115.632 35.9133 115.738 36.2267 115.952 36.48C116.178 36.72 116.458 36.9 116.792 37.02C117.138 37.14 117.492 37.2 117.852 37.2ZM129.767 38.7C128.82 38.7 128 38.52 127.307 38.16C126.627 37.7867 126.1 37.26 125.727 36.58C125.354 35.8867 125.154 35.06 125.127 34.1C125.114 33.9 125.107 33.6333 125.107 33.3C125.107 32.9667 125.114 32.7 125.127 32.5C125.154 31.54 125.354 30.72 125.727 30.04C126.1 29.3467 126.627 28.82 127.307 28.46C128 28.0867 128.82 27.9 129.767 27.9C130.54 27.9 131.2 28.0067 131.747 28.22C132.307 28.4333 132.767 28.7067 133.127 29.04C133.487 29.3733 133.754 29.7333 133.927 30.12C134.114 30.5067 134.214 30.8733 134.227 31.22C134.24 31.3533 134.2 31.46 134.107 31.54C134.014 31.62 133.9 31.66 133.767 31.66H132.807C132.674 31.66 132.574 31.6333 132.507 31.58C132.44 31.5133 132.374 31.4067 132.307 31.26C132.067 30.6067 131.74 30.1467 131.327 29.88C130.914 29.6133 130.4 29.48 129.787 29.48C128.987 29.48 128.334 29.7267 127.827 30.22C127.334 30.7133 127.067 31.5067 127.027 32.6C127.014 33.08 127.014 33.5467 127.027 34C127.067 35.1067 127.334 35.9067 127.827 36.4C128.334 36.88 128.987 37.12 129.787 37.12C130.4 37.12 130.914 36.9867 131.327 36.72C131.74 36.4533 132.067 35.9933 132.307 35.34C132.374 35.1933 132.44 35.0933 132.507 35.04C132.574 34.9733 132.674 34.94 132.807 34.94H133.767C133.9 34.94 134.014 34.98 134.107 35.06C134.2 35.14 134.24 35.2467 134.227 35.38C134.214 35.66 134.154 35.9467 134.047 36.24C133.94 36.5333 133.767 36.8333 133.527 37.14C133.3 37.4333 133.014 37.7 132.667 37.94C132.32 38.1667 131.9 38.3533 131.407 38.5C130.927 38.6333 130.38 38.7 129.767 38.7ZM138.129 42.3C138.022 42.3 137.929 42.26 137.849 42.18C137.769 42.1 137.729 42.0067 137.729 41.9C137.729 41.8467 137.736 41.7933 137.749 41.74C137.762 41.6867 137.789 41.62 137.829 41.54L139.369 37.88L135.549 28.86C135.482 28.7 135.449 28.5867 135.449 28.52C135.449 28.4 135.489 28.3 135.569 28.22C135.649 28.14 135.749 28.1 135.869 28.1H136.849C136.982 28.1 137.089 28.1333 137.169 28.2C137.249 28.2667 137.302 28.3467 137.329 28.44L140.369 35.72L143.489 28.44C143.529 28.3467 143.582 28.2667 143.649 28.2C143.729 28.1333 143.842 28.1 143.989 28.1H144.929C145.049 28.1 145.149 28.14 145.229 28.22C145.309 28.3 145.349 28.3933 145.349 28.5C145.349 28.5667 145.316 28.6867 145.249 28.86L139.569 41.96C139.529 42.0533 139.469 42.1333 139.389 42.2C139.322 42.2667 139.216 42.3 139.069 42.3H138.129Z" fill="#17191B"/>
</svg>
